<svg id="Layer_1" data-name="Layer 1" xmlns="http://www.w3.org/2000/svg" viewBox="0 0 1366 768"><defs><style>.cls-1{fill:none;stroke:#000;stroke-miterlimit:10;stroke-width:0.9px;}.cls-2{font-size:26px;font-family:Univers-Condensed, Univers;}</style></defs><title>Eras</title><path d="M648.26,245a18.61,18.61,0,1,1-18.61,18.61A18.63,18.63,0,0,1,648.26,245m0-5a23.61,23.61,0,1,0,23.61,23.61A23.61,23.61,0,0,0,648.26,240Z"/><path d="M576.07,240v5h.18a18.61,18.61,0,0,1-.17,37.22h-.18a18.61,18.61,0,0,1,.18-37.22v-5m0,0a23.61,23.61,0,0,0-.22,47.22h.23A23.61,23.61,0,0,0,576.3,240Z"/><path d="M505.2,245a18.61,18.61,0,1,1-18.61,18.61A18.63,18.63,0,0,1,505.2,245m0-5a23.61,23.61,0,1,0,23.61,23.61A23.61,23.61,0,0,0,505.2,240Z"/><path d="M433,240v5h.18a18.61,18.61,0,0,1-.17,37.22h-.18A18.61,18.61,0,0,1,433,245v-5m0,0a23.61,23.61,0,0,0-.22,47.22H433a23.61,23.61,0,0,0,.22-47.22Z"/><circle cx="312.61" cy="453.68" r="23.61"/><circle cx="376.74" cy="502.31" r="23.61"/><circle cx="463.42" cy="534.73" r="23.61"/><circle cx="555.03" cy="550.23" r="23.61"/><circle cx="645.24" cy="558.69" r="23.61"/><line class="cls-1" x1="420.08" y1="283.49" x2="327.76" y2="435.71"/><line class="cls-1" x1="327.41" y1="436.07" x2="505" y2="287.37"/><line class="cls-1" x1="327.41" y1="436.07" x2="576.17" y2="287.37"/><line class="cls-1" x1="327.41" y1="436.07" x2="648.06" y2="287.37"/><line class="cls-1" x1="392.95" y1="485.4" x2="419.73" y2="283.14"/><line class="cls-1" x1="392.95" y1="485.4" x2="505" y2="287.37"/><line class="cls-1" x1="392.95" y1="485.4" x2="576.17" y2="287.37"/><line class="cls-1" x1="392.95" y1="485.4" x2="648.06" y2="287.37"/><line class="cls-1" x1="463.42" y1="511.47" x2="419.73" y2="283.14"/><line class="cls-1" x1="463.42" y1="511.47" x2="505" y2="287.37"/><line class="cls-1" x1="463.42" y1="511.47" x2="576.17" y2="287.37"/><line class="cls-1" x1="463.42" y1="511.47" x2="576.17" y2="287.37"/><line class="cls-1" x1="463.42" y1="511.47" x2="648.06" y2="287.37"/><line class="cls-1" x1="555.03" y1="526.97" x2="419.73" y2="283.14"/><line class="cls-1" x1="555.03" y1="526.97" x2="505" y2="287.37"/><line class="cls-1" x1="555.03" y1="526.97" x2="576.17" y2="287.37"/><line class="cls-1" x1="555.03" y1="526.97" x2="648.06" y2="287.37"/><line class="cls-1" x1="645.24" y1="535.43" x2="419.73" y2="283.14"/><line class="cls-1" x1="645.24" y1="535.43" x2="505" y2="287.37"/><line class="cls-1" x1="645.24" y1="535.43" x2="576.17" y2="287.37"/><line class="cls-1" x1="645.24" y1="535.43" x2="648.06" y2="287.37"/><path d="M717.82,245.7a18.61,18.61,0,1,1-18.61,18.61,18.63,18.63,0,0,1,18.61-18.61m0-5a23.61,23.61,0,1,0,23.61,23.61,23.61,23.61,0,0,0-23.61-23.61Z"/><path d="M790,245.71a18.61,18.61,0,0,1,.17,37.22H790a18.61,18.61,0,0,1-.17-37.22H790m0-5h-.23a23.61,23.61,0,0,0,.22,47.22h.23a23.61,23.61,0,0,0-.22-47.22Z"/><path d="M860.88,245.7a18.61,18.61,0,1,1-18.61,18.61,18.63,18.63,0,0,1,18.61-18.61m0-5a23.61,23.61,0,1,0,23.61,23.61,23.61,23.61,0,0,0-23.61-23.61Z"/><path d="M933.07,245.71a18.61,18.61,0,0,1,.17,37.22h-.18a18.61,18.61,0,0,1-.17-37.22h.18m0-5h-.23a23.61,23.61,0,0,0,.22,47.22h.23a23.61,23.61,0,0,0-.22-47.22Z"/><circle cx="1053.47" cy="454.39" r="23.61"/><circle cx="989.34" cy="503.01" r="23.61"/><circle cx="902.66" cy="535.43" r="23.61"/><circle cx="811.05" cy="550.94" r="23.61"/><circle cx="720.84" cy="559.39" r="23.61"/><line class="cls-1" x1="946" y1="284.2" x2="1038.32" y2="436.42"/><line class="cls-1" x1="1038.67" y1="436.77" x2="861.08" y2="288.07"/><line class="cls-1" x1="1038.67" y1="436.77" x2="789.9" y2="288.07"/><line class="cls-1" x1="1038.67" y1="436.77" x2="718.02" y2="288.07"/><line class="cls-1" x1="973.13" y1="486.1" x2="946.35" y2="283.85"/><line class="cls-1" x1="973.13" y1="486.1" x2="861.08" y2="288.07"/><line class="cls-1" x1="973.13" y1="486.1" x2="789.9" y2="288.07"/><line class="cls-1" x1="973.13" y1="486.1" x2="718.02" y2="288.07"/><line class="cls-1" x1="902.66" y1="512.18" x2="946.35" y2="283.85"/><line class="cls-1" x1="902.66" y1="512.18" x2="861.08" y2="288.07"/><line class="cls-1" x1="902.66" y1="512.18" x2="789.9" y2="288.07"/><line class="cls-1" x1="902.66" y1="512.18" x2="789.9" y2="288.07"/><line class="cls-1" x1="902.66" y1="512.18" x2="718.02" y2="288.07"/><line class="cls-1" x1="811.05" y1="527.68" x2="946.35" y2="283.85"/><line class="cls-1" x1="811.05" y1="527.68" x2="861.08" y2="288.07"/><line class="cls-1" x1="811.05" y1="527.68" x2="789.9" y2="288.07"/><line class="cls-1" x1="811.05" y1="527.68" x2="718.02" y2="288.07"/><line class="cls-1" x1="720.84" y1="536.14" x2="946.35" y2="283.85"/><line class="cls-1" x1="720.84" y1="536.14" x2="861.08" y2="288.07"/><line class="cls-1" x1="720.84" y1="536.14" x2="789.9" y2="288.07"/><line class="cls-1" x1="720.84" y1="536.14" x2="718.02" y2="288.07"/><line class="cls-1" x1="327.41" y1="436.07" x2="946.15" y2="283.85"/><line class="cls-1" x1="327.41" y1="436.07" x2="860.88" y2="288.07"/><line class="cls-1" x1="327.41" y1="436.07" x2="789.71" y2="288.07"/><line class="cls-1" x1="327.41" y1="436.07" x2="717.82" y2="288.07"/><line class="cls-1" x1="392.95" y1="485.4" x2="946.15" y2="283.85"/><line class="cls-1" x1="392.95" y1="485.4" x2="860.88" y2="288.07"/><line class="cls-1" x1="392.95" y1="485.4" x2="789.71" y2="288.07"/><line class="cls-1" x1="392.95" y1="485.4" x2="717.82" y2="288.07"/><line class="cls-1" x1="463.42" y1="511.47" x2="946.15" y2="283.85"/><line class="cls-1" x1="463.42" y1="511.47" x2="860.88" y2="288.07"/><line class="cls-1" x1="463.42" y1="511.47" x2="789.71" y2="288.07"/><line class="cls-1" x1="463.42" y1="511.47" x2="717.82" y2="288.07"/><line class="cls-1" x1="555.03" y1="526.97" x2="946.15" y2="283.85"/><line class="cls-1" x1="555.03" y1="526.97" x2="860.88" y2="288.07"/><line class="cls-1" x1="555.03" y1="526.97" x2="789.71" y2="288.07"/><line class="cls-1" x1="555.03" y1="526.97" x2="717.82" y2="288.07"/><line class="cls-1" x1="1038.47" y1="436.77" x2="648.06" y2="287.37"/><line class="cls-1" x1="1038.47" y1="436.77" x2="576.17" y2="287.37"/><line class="cls-1" x1="1038.47" y1="436.77" x2="505" y2="287.37"/><line class="cls-1" x1="1038.47" y1="436.77" x2="419.73" y2="283.14"/><line class="cls-1" x1="972.93" y1="486.1" x2="648.06" y2="287.37"/><line class="cls-1" x1="972.93" y1="486.1" x2="576.17" y2="287.37"/><line class="cls-1" x1="972.93" y1="486.1" x2="505" y2="287.37"/><line class="cls-1" x1="972.93" y1="486.1" x2="419.73" y2="283.14"/><line class="cls-1" x1="902.46" y1="512.18" x2="648.06" y2="287.37"/><line class="cls-1" x1="902.46" y1="512.18" x2="576.17" y2="287.37"/><line class="cls-1" x1="902.46" y1="512.18" x2="505" y2="287.37"/><line class="cls-1" x1="902.46" y1="512.18" x2="419.73" y2="283.14"/><line class="cls-1" x1="810.85" y1="527.68" x2="648.06" y2="287.37"/><line class="cls-1" x1="810.85" y1="527.68" x2="576.17" y2="287.37"/><line class="cls-1" x1="810.85" y1="527.68" x2="505" y2="287.37"/><line class="cls-1" x1="810.85" y1="527.68" x2="433.12" y2="287.37"/><line class="cls-1" x1="720.64" y1="536.14" x2="576.17" y2="287.37"/><line class="cls-1" x1="720.64" y1="536.14" x2="576.17" y2="287.37"/><line class="cls-1" x1="720.64" y1="536.14" x2="505" y2="287.37"/><line class="cls-1" x1="720.64" y1="536.14" x2="419.73" y2="283.14"/><line class="cls-1" x1="645.24" y1="535.43" x2="946.15" y2="283.85"/><line class="cls-1" x1="645.24" y1="535.43" x2="860.88" y2="288.07"/><line class="cls-1" x1="645.24" y1="535.43" x2="789.71" y2="288.07"/><line class="cls-1" x1="645.24" y1="535.43" x2="717.82" y2="288.07"/><text class="cls-2" transform="translate(102.03 120.22)">Era Pages:</text><text class="cls-2" transform="translate(106.03 211.22)">Action Pages:</text><path d="M261,89v5h.18a18.61,18.61,0,0,1-.17,37.22h-.18A18.61,18.61,0,0,1,261,94V89m0,0a23.61,23.61,0,0,0-.22,47.22H261A23.61,23.61,0,0,0,261.24,89Z"/><circle cx="288.61" cy="204.68" r="23.61"/></svg>